# xmcd
#
# Track frame offsets:
#	150
#	2590
#	22317
#	47444
#	63046
#	89959
#	112086
#	121238
#	142015
#	164892
#	202244
#	220171
#	238467
#	258344
#
# Disc length: 3471 seconds
#
# Revision: 0
# Processed by: cddbd v1.5.1PL0 Copyright (c) Steve Scherf et al.
# Submitted via: dBpowerAMP V4.0
#
DISCID=dc0d8d0e
DTITLE=Buzz 'n The Blues Band - Blues Singer
DYEAR=1994
DGENRE=Blues
TTITLE0=Chaser...
TTITLE1=Something to Love
TTITLE2=What's Wrong With Me
TTITLE3=Ya Know What She Did?
TTITLE4=Good to Her
TTITLE5=Take it Easy
TTITLE6=You Talk Too Much
TTITLE7=City Man
TTITLE8=Don't Roll Me Baby
TTITLE9=Blues Singer
TTITLE10=Ain't So Bad
TTITLE11=Bossman Don't Come Through
TTITLE12=Same Damn Thing
TTITLE13=Chaser
EXTD=
EXTT0=
EXTT1=
EXTT2=
EXTT3=
EXTT4=
EXTT5=
EXTT6=
EXTT7=
EXTT8=
EXTT9=
EXTT10=
EXTT11=
EXTT12=
EXTT13=
PLAYORDER=
